# xmcd
#
# Track frame offsets: 
#        150
#        10803
#        21845
#        34296
#        47272
#        59036
#        68598
#        79272
#        93802
#        106444
#        119381
#        130022
#
# Disc length: 1898 seconds
#
# Revision: 0
# Processed by: cddbd v1.5.2PL0 Copyright (c) Steve Scherf et al.
# Submitted via: ExactAudioCopy v1.0b3
#
DISCID=9507680c
DTITLE=Various Artist - Electro-Blues Vol. 2 [CD2]
DYEAR=2014
DGENRE=Blues
TTITLE0=Etta James - Good Rockin' Daddy
TTITLE1=Wynonie 'Mr Blues' Harris - Lovin' Machine (With Todd Rhodes O
TTITLE1=rchestra)
TTITLE2=The Robins - Smokey Joe's Cafe
TTITLE3=Booker T. and The MGs - Green Onions
TTITLE4=Freddie King - San-Ho-Zay
TTITLE5=Mike Pedicin - Burnt Toast And Black Coffee
TTITLE6=The Clovers - One Mint Julep
TTITLE7=Ruth Brown - 5-10-15 Hours
TTITLE8=Floyd Dixon - Hey Bartender
TTITLE9=Buddy Griffin and His Orchestra - I Got A Secret (I Ain't Gonna 
TTITLE9=Keep)
TTITLE10=Ain't Got No Home - Clarence 'Frogman' Henry
TTITLE11=Let Me Go Home, Whiskey - Amos Milburn
EXTD=
EXTT0=
EXTT1=
EXTT2=
EXTT3=
EXTT4=
EXTT5=
EXTT6=
EXTT7=
EXTT8=
EXTT9=
EXTT10=
EXTT11=
PLAYORDER=
